[Header]
FileType HTR
DataType HTRS
FileVersion 1
NumSegments 64
NumFrames 4
DataFrameRate 30
EulerRotationOrder ZYX
CalibrationUnits mm
RotationUnits Degrees
GlobalAxisofGravity Y
BoneLengthAxis Y
ScaleFactor 1.0
[SegmentNames&Hierarchy]
Hips	GLOBAL
Spine	Hips
Spine1	Spine
Spine2	Spine1
Neck	Spine2
Head	Neck
LeftEye	Head
RightEye	Head
LeftShoulder	Spine2
LeftArm	LeftShoulder
LeftForeArm	LeftArm
LeftHand	LeftForeArm
LeftHandThumb1	LeftHand
LeftHandThumb2	LeftHandThumb1
LeftHandThumb3	LeftHandThumb2
LeftHandThumb4	LeftHandThumb3
LeftHandIndex1	LeftHand
LeftHandIndex2	LeftHandIndex1
LeftHandIndex3	LeftHandIndex2
LeftHandIndex4	LeftHandIndex3
LeftHandMiddle1	LeftHand
LeftHandMiddle2	LeftHandMiddle1
LeftHandMiddle3	LeftHandMiddle2
LeftHandMiddle4	LeftHandMiddle3
LeftHandRing1	LeftHand
LeftHandRing2	LeftHandRing1
LeftHandRing3	LeftHandRing2
LeftHandRing4	LeftHandRing3
LeftHandPinky1	LeftHand
LeftHandPinky2	LeftHandPinky1
LeftHandPinky3	LeftHandPinky2
LeftHandPinky4	LeftHandPinky3
RightShoulder	Spine2
RightArm	RightShoulder
RightForeArm	RightArm
RightHand	RightForeArm
RightHandPinky1	RightHand
RightHandPinky2	RightHandPinky1
RightHandPinky3	RightHandPinky2
RightHandPinky4	RightHandPinky3
RightHandRing1	RightHand
RightHandRing2	RightHandRing1
RightHandRing3	RightHandRing2
RightHandRing4	RightHandRing3
RightHandMiddle1	RightHand
RightHandMiddle2	RightHandMiddle1
RightHandMiddle3	RightHandMiddle2
RightHandMiddle4	RightHandMiddle3
RightHandIndex1	RightHand
RightHandIndex2	RightHandIndex1
RightHandIndex3	RightHandIndex2
RightHandIndex4	RightHandIndex3
RightHandThumb1	RightHand
RightHandThumb2	RightHandThumb1
RightHandThumb3	RightHandThumb2
RightHandThumb4	RightHandThumb3
LeftUpLeg	Hips
LeftLeg	LeftUpLeg
LeftFoot	LeftLeg
LeftToeBase	LeftFoot
RightUpLeg	Hips
RightLeg	RightUpLeg
RightFoot	RightLeg
RightToeBase	RightFoot
[BasePosition]
Hips	0	0	0	0	0	0	1
Spine	0	0	0	0	0	0	1
Spine1	0	0	0	0	0	0	1
Spine2	0	0	0	0	0	0	1
Neck	0	0	0	0	0	0	1
Head	0	0	0	0	0	0	1
LeftEye	0	0	0	0	0	0	1
RightEye	0	0	0	0	0	0	1
LeftShoulder	0	0	0	0	0	0	1
LeftArm	0	0	0	0	0	0	1
LeftForeArm	0	0	0	0	0	0	1
LeftHand	0	0	0	0	0	0	1
LeftHandThumb1	0	0	0	0	0	0	1
LeftHandThumb2	0	0	0	0	0	0	1
LeftHandThumb3	0	0	0	0	0	0	1
LeftHandThumb4	0	0	0	0	0	0	1
LeftHandIndex1	0	0	0	0	0	0	1
LeftHandIndex2	0	0	0	0	0	0	1
LeftHandIndex3	0	0	0	0	0	0	1
LeftHandIndex4	0	0	0	0	0	0	1
LeftHandMiddle1	0	0	0	0	0	0	1
LeftHandMiddle2	0	0	0	0	0	0	1
LeftHandMiddle3	0	0	0	0	0	0	1
LeftHandMiddle4	0	0	0	0	0	0	1
LeftHandRing1	0	0	0	0	0	0	1
LeftHandRing2	0	0	0	0	0	0	1
LeftHandRing3	0	0	0	0	0	0	1
LeftHandRing4	0	0	0	0	0	0	1
LeftHandPinky1	0	0	0	0	0	0	1
LeftHandPinky2	0	0	0	0	0	0	1
LeftHandPinky3	0	0	0	0	0	0	1
LeftHandPinky4	0	0	0	0	0	0	1
RightShoulder	0	0	0	0	0	0	1
RightArm	0	0	0	0	0	0	1
RightForeArm	0	0	0	0	0	0	1
RightHand	0	0	0	0	0	0	1
RightHandPinky1	0	0	0	0	0	0	1
RightHandPinky2	0	0	0	0	0	0	1
RightHandPinky3	0	0	0	0	0	0	1
RightHandPinky4	0	0	0	0	0	0	1
RightHandRing1	0	0	0	0	0	0	1
RightHandRing2	0	0	0	0	0	0	1
RightHandRing3	0	0	0	0	0	0	1
RightHandRing4	0	0	0	0	0	0	1
RightHandMiddle1	0	0	0	0	0	0	1
RightHandMiddle2	0	0	0	0	0	0	1
RightHandMiddle3	0	0	0	0	0	0	1
RightHandMiddle4	0	0	0	0	0	0	1
RightHandIndex1	0	0	0	0	0	0	1
RightHandIndex2	0	0	0	0	0	0	1
RightHandIndex3	0	0	0	0	0	0	1
RightHandIndex4	0	0	0	0	0	0	1
RightHandThumb1	0	0	0	0	0	0	1
RightHandThumb2	0	0	0	0	0	0	1
RightHandThumb3	0	0	0	0	0	0	1
RightHandThumb4	0	0	0	0	0	0	1
LeftUpLeg	0	0	0	0	0	0	1
LeftLeg	0	0	0	0	0	0	1
LeftFoot	0	0	0	0	0	0	1
LeftToeBase	0	0	0	0	0	0	1
RightUpLeg	0	0	0	0	0	0	1
RightLeg	0	0	0	0	0	0	1
RightFoot	0	0	0	0	0	0	1
RightToeBase	0	0	0	0	0	0	1
[Hips]
9	41.3984108	1003.57666	-17.68328285	10.37234497	-18.17794609	-3.089585066	1.0
10	49.18475342	981.1982422	-29.66188431	14.20612717	-20.55605316	-3.660755157	1.0
11	56.38835144	951.1862793	-42.9278717	18.38510704	-22.42205429	-4.772842884	1.0
12	63.2311821	914.4312134	-56.02861786	22.81152534	-23.40826607	-6.353377819	1.0
[Spine]
9	0	101.8159943	1.315000057	5.240392208	0.4237795472	1.613933086	1.0
10	0	101.8159943	1.315000057	6.067359447	-0.3735655248	0.9369905591	1.0
11	0	101.8159943	1.315000057	7.188727379	-1.518351674	0.4918266833	1.0
12	0	101.8159943	1.315000057	8.440973282	-2.828230381	0.4665426314	1.0
[Spine1]
9	0	100.8349991	-10.00800037	2.024234772	-0.3197505474	1.353791595	1.0
10	0	100.8349991	-10.00800037	2.363340378	-0.6349629164	1.17742312	1.0
11	0	100.8349991	-10.00800037	2.791750669	-1.038428426	1.042643905	1.0
12	0	100.8349991	-10.00800037	3.251083851	-1.382361412	0.9896557331	1.0
[Spine2]
9	0	91	-13.73399925	1.998928666	-0.3000791073	1.370222807	1.0
10	0	91	-13.73399925	2.338493109	-0.6166588664	1.196963191	1.0
11	0	91	-13.73399925	2.766051769	-1.024127841	1.063546896	1.0
12	0	91	-13.73399925	3.221927404	-1.376800895	1.002784371	1.0
[Neck]
9	0	166.7169952	-25.16200066	1.025357604	1.67128098	2.044207096	1.0
10	0	166.7169952	-25.16200066	-1.140461683	2.3279562	2.473882675	1.0
11	0	166.7169952	-25.16200066	-3.257817745	3.063450813	2.833730459	1.0
12	0	166.7169952	-25.16200066	-4.839716434	3.717704058	3.098784447	1.0
[Head]
9	0	96.17900085	16.84999847	-15.21020126	10.24895287	-3.746275902	1.0
10	0	96.17900085	16.84999847	-17.8142395	12.69618988	-4.430565834	1.0
11	0	96.17900085	16.84999847	-21.63640404	15.13260651	-5.778906345	1.0
12	0	96.17900085	16.84999847	-27.0700016	17.00504684	-7.918473244	1.0
[LeftEye]
9	30.6760006	64.09500122	92.83599854	0	0	0	1.0
10	30.6760006	64.09500122	92.83599854	0	0	0	1.0
11	30.6760006	64.09500122	92.83599854	0	0	0	1.0
12	30.6760006	64.09500122	92.83599854	0	0	0	1.0
[RightEye]
9	-30.6760006	64.09500122	92.83499908	0	0	0	1.0
10	-30.6760006	64.09500122	92.83499908	0	0	0	1.0
11	-30.6760006	64.09500122	92.83499908	0	0	0	1.0
12	-30.6760006	64.09500122	92.83499908	0	0	0	1.0
[LeftShoulder]
9	45.70400238	109.4599991	-26.28000069	4.755191803	-16.35783958	-8.16910553	1.0
10	45.70400238	109.4599991	-26.28000069	4.758808613	-17.31899071	-7.715624332	1.0
11	45.70400238	109.4599991	-26.28000069	4.847652435	-18.66898537	-7.760391712	1.0
12	45.70400238	109.4599991	-26.28000069	5.102723122	-19.94485092	-8.56481266	1.0
[LeftArm]
9	105.923996	-5.24600029	-22.32099915	21.23970604	-10.8896246	-62.14763641	1.0
10	105.923996	-5.24600029	-22.32099915	19.53420067	-13.15273857	-58.47257614	1.0
11	105.923996	-5.24600029	-22.32099915	17.10563087	-16.80745506	-53.31429291	1.0
12	105.923996	-5.24600029	-22.32099915	13.44865894	-22.12959671	-46.40305328	1.0
[LeftForeArm]
9	278.414978	-0.0009999999311	0	-1.212170991e-05	-10.00605202	-0.0002029057214	1.0
10	278.414978	-0.0009999999311	0	2.445267228e-06	-11.59521008	-0.0002162307646	1.0
11	278.414978	-0.0009999999311	0	-3.318845074e-07	-12.6588583	-0.0002168414503	1.0
12	278.414978	-0.0009999999311	0	-9.617254364e-06	-15.48085308	-0.0002065637527	1.0
[LeftHand]
9	283.2879944	0	0	-44.65148544	8.810378075	1.789385319	1.0
10	283.2879944	0	0	-45.75889969	14.99500847	4.868592739	1.0
11	283.2879944	0	0	-40.98436737	20.20947266	10.38732815	1.0
12	283.2879944	0	0	-32.80925751	20.00424576	15.6631937	1.0
[LeftHandThumb1]
9	24.6609993	-15.75	26.8239994	-0.488989681	2.201390505	4.818532467	1.0
10	24.6609993	-15.75	26.8239994	-0.4889866114	2.201405287	4.818538666	1.0
11	24.6609993	-15.75	26.8239994	-0.4889854789	2.201416016	4.818555355	1.0
12	24.6609993	-15.75	26.8239994	-0.4890101254	2.201350689	4.818532944	1.0
[LeftHandThumb2]
9	32.29800034	-18.64699936	18.64699936	28.8892746	35.51893997	30.89530373	1.0
10	32.29800034	-18.64699936	18.64699936	29.11098099	35.16726685	31.00715256	1.0
11	32.29800034	-18.64699936	18.64699936	27.75970078	31.78617287	29.70258331	1.0
12	32.29800034	-18.64699936	18.64699936	23.73686028	26.6654644	26.4574852	1.0
[LeftHandThumb3]
9	26.52600098	-15.31499958	15.31499958	-16.23993492	-17.91460228	26.93286705	1.0
10	26.52600098	-15.31499958	15.31499958	-16.73214149	-20.68653679	28.50167084	1.0
11	26.52600098	-15.31499958	15.31499958	-15.05157566	-14.71626568	21.39816856	1.0
12	26.52600098	-15.31499958	15.31499958	-13.18680191	-3.45883131	12.86742783	1.0
[LeftHandThumb4]
9	19.54599953	-11.28499985	11.28499985	0	0	0	1.0
10	19.54599953	-11.28499985	11.28499985	0	0	0	1.0
11	19.54599953	-11.28499985	11.28499985	0	0	0	1.0
12	19.54599953	-11.28499985	11.28499985	0	0	0	1.0
[LeftHandIndex1]
9	91.09299469	-5.170999527	22.60099792	0.9735606313	4.605410576	-23.42132759	1.0
10	91.09299469	-5.170999527	22.60099792	1.062419295	5.001782894	-24.20554161	1.0
11	91.09299469	-5.170999527	22.60099792	0.7588034272	3.557162762	-21.0356369	1.0
12	91.09299469	-5.170999527	22.60099792	0.2459225655	1.343155384	-16.65310669	1.0
[LeftHandIndex2]
9	36.76399994	0	0	-0.2646572888	1.738664627	-17.30950165	1.0
10	36.76399994	0	0	-0.2663683891	1.744146347	-17.36590004	1.0
11	36.76399994	0	0	-0.2804407477	1.788454413	-17.82202721	1.0
12	36.76399994	0	0	-0.3165231049	1.896629214	-18.94078445	1.0
[LeftHandIndex3]
9	28.83100128	0	0	-0.05646629632	0.8105728626	-7.971362591	1.0
10	28.83100128	0	0	-0.05726027116	0.8162633181	-8.027628899	1.0
11	28.83100128	0	0	-0.06394511461	0.8622558117	-8.48327446	1.0
12	28.83100128	0	0	-0.08198253065	0.9748442769	-9.60132122	1.0
[LeftHandIndex4]
9	23.92700005	0	0	0	0	0	1.0
10	23.92700005	0	0	0	0	0	1.0
11	23.92700005	0	0	0	0	0	1.0
12	23.92700005	0	0	0	0	0	1.0
[LeftHandMiddle1]
9	95.33399963	0	0	-1.609024763	5.517852306	-26.53364372	1.0
10	95.33399963	0	0	-1.643531561	5.040081978	-26.93662834	1.0
11	95.33399963	0	0	-1.501287341	3.682254314	-25.20776367	1.0
12	95.33399963	0	0	-1.392622709	2.776792765	-23.87132072	1.0
[LeftHandMiddle2]
9	36.98199844	0	0	-0.2631829083	1.733908772	-17.26069641	1.0
10	36.98199844	0	0	-0.2689409852	1.752289295	-17.4496212	1.0
11	36.98199844	0	0	-0.2788553536	1.783532262	-17.77124214	1.0
12	36.98199844	0	0	-0.2902548611	1.818634987	-18.13331223	1.0
[LeftHandMiddle3]
9	29.50900078	0	0	-0.2947371602	1.832332969	-18.27478027	1.0
10	29.50900078	0	0	-0.3007728457	1.85046649	-18.46229553	1.0
11	29.50900078	0	0	-0.3111204207	1.881174207	-18.78026009	1.0
12	29.50900078	0	0	-0.323122412	1.916036248	-19.14213371	1.0
[LeftHandMiddle4]
9	28.3390007	0	0	0	0	0	1.0
10	28.3390007	0	0	0	0	0	1.0
11	28.3390007	0	0	0	0	0	1.0
12	28.3390007	0	0	0	0	0	1.0
[LeftHandRing1]
9	91.04499817	-0.4390000105	-18.65100098	-1.618290186	7.621351242	-26.68726158	1.0
10	91.04499817	-0.4390000105	-18.65100098	-1.414320111	7.244688988	-24.1872654	1.0
11	91.04499817	-0.4390000105	-18.65100098	-1.252578855	5.613942623	-22.06068611	1.0
12	91.04499817	-0.4390000105	-18.65100098	-1.352365851	3.970378399	-23.31694794	1.0
[LeftHandRing2]
9	31.54000092	0	0	-0.4019708037	2.129368782	-21.37409973	1.0
10	31.54000092	0	0	-0.3825588524	2.07941699	-20.84808731	1.0
11	31.54000092	0	0	-0.3756749332	2.061181068	-20.65673637	1.0
12	31.54000092	0	0	-0.4066677392	2.141612768	-21.5028019	1.0
[LeftHandRing3]
9	29.37700081	0	0	-0.2967357039	1.838121414	-18.33480263	1.0
10	29.37700081	0	0	-0.2799706459	1.787094355	-17.80788231	1.0
11	29.37700081	0	0	-0.2738575935	1.76785183	-17.60979843	1.0
12	29.37700081	0	0	-0.3005074561	1.849737763	-18.45467186	1.0
[LeftHandRing4]
9	26.47500038	0	0	0	0	0	1.0
10	26.47500038	0	0	0	0	0	1.0
11	26.47500038	0	0	0	0	0	1.0
12	26.47500038	0	0	0	0	0	1.0
[LeftHandPinky1]
9	80.77799988	-4.887000084	-38.06099701	-2.033467054	8.749482155	-31.69984627	1.0
10	80.77799988	-4.887000084	-38.06099701	-2.086436749	9.80655098	-32.65450287	1.0
11	80.77799988	-4.887000084	-38.06099701	-2.195620537	7.85769701	-32.8116951	1.0
12	80.77799988	-4.887000084	-38.06099701	-2.528040648	3.479978085	-33.22861099	1.0
[LeftHandPinky2]
9	36	0	0	-0.2563921511	1.711016536	-17.02646065	1.0
10	36	0	0	-0.2260973454	1.610189676	-15.99365616	1.0
11	36	0	0	-0.213913098	1.566625834	-15.5499754	1.0
12	36	0	0	-0.269144237	1.754027247	-17.46625519	1.0
[LeftHandPinky3]
9	21.14200211	0	0	-0.2303419858	1.623569369	-16.13130569	1.0
10	21.14200211	0	0	-0.2017329335	1.52262044	-15.10193443	1.0
11	21.14200211	0	0	-0.1900667399	1.47825253	-14.65205669	1.0
12	21.14200211	0	0	-0.2416968942	1.664358616	-16.54614449	1.0
[LeftHandPinky4]
9	19.75699997	0	0	0	0	0	1.0
10	19.75699997	0	0	0	0	0	1.0
11	19.75699997	0	0	0	0	0	1.0
12	19.75699997	0	0	0	0	0	1.0
[RightShoulder]
9	-45.70000076	109.4620056	-26.28000069	4.721221447	14.27506447	14.14571571	1.0
10	-45.70000076	109.4620056	-26.28000069	4.523310184	14.06390667	13.07574844	1.0
11	-45.70000076	109.4620056	-26.28000069	4.315950871	13.90723896	11.90616322	1.0
12	-45.70000076	109.4620056	-26.28000069	4.20620203	13.74111557	11.46531487	1.0
[RightArm]
9	-105.9280014	-5.248000145	-22.32099915	22.57427025	2.496177673	51.35293961	1.0
10	-105.9280014	-5.248000145	-22.32099915	21.62456322	3.204391956	52.14434052	1.0
11	-105.9280014	-5.248000145	-22.32099915	19.6749115	3.76292491	53.92131805	1.0
12	-105.9280014	-5.248000145	-22.32099915	16.44258881	3.464352608	55.73254776	1.0
[RightForeArm]
9	-278.414978	0	0	-3.753097189e-06	30.57946014	2.279831051e-06	1.0
10	-278.414978	0	0	-7.174396615e-07	33.91706467	-7.17079547e-06	1.0
11	-278.414978	0	0	8.570783393e-06	36.62138367	1.42148283e-05	1.0
12	-278.414978	0	0	-3.904357072e-06	38.13462448	-7.048992302e-06	1.0
[RightHand]
9	-283.2879944	0	0.0009999999311	-19.2356739	-3.973247051	-22.97510338	1.0
10	-283.2879944	0	0.0009999999311	-18.69230843	-4.956105232	-28.19499588	1.0
11	-283.2879944	0	0.0009999999311	-18.48031616	-5.22887373	-32.00022507	1.0
12	-283.2879944	0	0.0009999999311	-19.24222183	-5.6551404	-32.46227646	1.0
[RightHandPinky1]
9	-80.76699829	-4.885000229	-38.06000137	-2.783149958	-1.403658032	33.1690979	1.0
10	-80.76699829	-4.885000229	-38.06000137	-2.957962751	-0.9846180081	34.14281464	1.0
11	-80.76699829	-4.885000229	-38.06000137	-2.766098022	-1.539135933	33.35460281	1.0
12	-80.76699829	-4.885000229	-38.06000137	-2.252640247	-3.069382906	31.23596573	1.0
[RightHandPinky2]
9	-36	0	0.0009999999311	-0.2161966562	-1.399879813	17.58029366	1.0
10	-36	0	0.0009999999311	-0.2207747102	-1.414099455	17.76482582	1.0
11	-36	0	0.0009999999311	-0.2403096855	-1.47377646	18.54062653	1.0
12	-36	0	0.0009999999311	-0.2738707364	-1.570094466	19.80081558	1.0
[RightHandPinky3]
9	-21.14200211	0	0	-0.1941822916	-1.328333378	16.63592339	1.0
10	-21.14200211	0	0	-0.198365137	-1.342070937	16.81330872	1.0
11	-21.14200211	0	0	-0.2171450853	-1.402755022	17.59803963	1.0
12	-21.14200211	0	0	-0.2497148663	-1.501251936	18.87969208	1.0
[RightHandPinky4]
9	-19.75699997	0	0	0	0	0	1.0
10	-19.75699997	0	0	0	0	0	1.0
11	-19.75699997	0	0	0	0	0	1.0
12	-19.75699997	0	0	0	0	0	1.0
[RightHandRing1]
9	-91.03599548	-0.4390000105	-18.65100098	-1.561418414	0.3317879438	28.01196098	1.0
10	-91.03599548	-0.4390000105	-18.65100098	-1.598158479	0.6193651557	28.52638245	1.0
11	-91.03599548	-0.4390000105	-18.65100098	-1.546661854	-0.02314822562	27.78947258	1.0
12	-91.03599548	-0.4390000105	-18.65100098	-1.464249134	-1.047243595	26.60198593	1.0
[RightHandRing2]
9	-31.54000092	0	0	-0.3701529503	-1.815794826	23.04244423	1.0
10	-31.54000092	0	0	-0.3881963789	-1.857599974	23.60511208	1.0
11	-31.54000092	0	0	-0.4120480418	-1.911239266	24.33064461	1.0
12	-31.54000092	0	0	-0.4461461902	-1.984740734	25.33210945	1.0
[RightHandRing3]
9	-29.37700081	0	0	-0.2802325189	-1.587940931	20.01521873	1.0
10	-29.37700081	0	0	-0.2961384952	-1.630907536	20.58133888	1.0
11	-29.37700081	0	0	-0.3169025779	-1.685167074	21.29921341	1.0
12	-29.37700081	0	0	-0.3466922343	-1.759490967	22.28869057	1.0
[RightHandRing4]
9	-26.47500038	0	0	0	0	0	1.0
10	-26.47500038	0	0	0	0	0	1.0
11	-26.47500038	0	0	0	0	0	1.0
12	-26.47500038	0	0	0	0	0	1.0
[RightHandMiddle1]
9	-95.32500458	0	0	-1.135302186	-1.675851226	21.86555481	1.0
10	-95.32500458	0	0	-1.151291966	-1.524590373	22.10269737	1.0
11	-95.32500458	0	0	-1.046656013	-1.910520434	20.52170372	1.0
12	-95.32500458	0	0	-0.9636954069	-2.195237398	19.23879051	1.0
[RightHandMiddle2]
9	-36.98199844	0	0	-0.3037436008	-1.651094913	20.847826	1.0
10	-36.98199844	0	0	-0.3549189568	-1.779049993	22.55088425	1.0
11	-36.98199844	0	0	-0.4255703688	-1.940848947	24.73292732	1.0
12	-36.98199844	0	0	-0.5034370422	-2.100908041	26.93328667	1.0
[RightHandMiddle3]
9	-29.50900078	0	0	-0.3337605298	-1.729835391	21.86575127	1.0
10	-29.50900078	0	0	-0.3872537315	-1.856983423	23.57069588	1.0
11	-29.50900078	0	0	-0.4605992734	-2.017129421	25.74782753	1.0
12	-29.50900078	0	0	-0.5411130786	-2.175462484	27.94374084	1.0
[RightHandMiddle4]
9	-28.3390007	0	0.0009999999311	0	0	0	1.0
10	-28.3390007	0	0.0009999999311	0	0	0	1.0
11	-28.3390007	0	0.0009999999311	0	0	0	1.0
12	-28.3390007	0	0.0009999999311	0	0	0	1.0
[RightHandIndex1]
9	-91.08300018	-5.167999744	22.60099792	-0.8844161034	3.249053955	18.2395668	1.0
10	-91.08300018	-5.167999744	22.60099792	-0.8994193673	3.812003851	18.7303524	1.0
11	-91.08300018	-5.167999744	22.60099792	-0.8555926681	3.704901934	18.0588932	1.0
12	-91.08300018	-5.167999744	22.60099792	-0.8940861225	3.106202364	18.55455017	1.0
[RightHandIndex2]
9	-36.76399994	0	0	-0.2186497003	-1.407529116	17.65990257	1.0
10	-36.76399994	0	0	-0.2292319983	-1.440247774	18.08467674	1.0
11	-36.76399994	0	0	-0.2469030023	-1.493309736	18.77568626	1.0
12	-36.76399994	0	0	-0.2706700563	-1.561491489	19.66773415	1.0
[RightHandIndex3]
9	-28.83100128	0	0	-0.0500799045	-0.6799060702	8.425197601	1.0
10	-28.83100128	0	0	-0.05581761524	-0.7174480557	8.894217491	1.0
11	-28.83100128	0	0	-0.06463319808	-0.7717784643	9.573894501	1.0
12	-28.83100128	0	0	-0.07648124546	-0.83915025	10.41858864	1.0
[RightHandIndex4]
9	-23.92700005	0	0	0	0	0	1.0
10	-23.92700005	0	0	0	0	0	1.0
11	-23.92700005	0	0	0	0	0	1.0
12	-23.92700005	0	0	0	0	0	1.0
[RightHandThumb1]
9	-24.64799881	-15.72700024	26.82600021	-1.658446908	-0.2891631126	-4.221335888	1.0
10	-24.64799881	-15.72700024	26.82600021	-1.658455729	-0.2891349494	-4.221324921	1.0
11	-24.64799881	-15.72700024	26.82600021	-1.658476949	-0.2890686691	-4.221318245	1.0
12	-24.64799881	-15.72700024	26.82600021	-1.658474445	-0.2890886366	-4.221338272	1.0
[RightHandThumb2]
9	-32.29800034	-18.64699936	18.64699936	18.80592155	-16.18585014	-20.78160286	1.0
10	-32.29800034	-18.64699936	18.64699936	18.37364578	-14.78173733	-21.07579041	1.0
11	-32.29800034	-18.64699936	18.64699936	18.3080883	-14.35168076	-21.57320213	1.0
12	-32.29800034	-18.64699936	18.64699936	18.36263657	-14.48089409	-21.64756966	1.0
[RightHandThumb3]
9	-26.52600098	-15.31399918	15.31399918	-14.69413376	-6.408034325	-12.41266346	1.0
10	-26.52600098	-15.31399918	15.31399918	-14.84592056	-6.293298244	-13.72033882	1.0
11	-26.52600098	-15.31399918	15.31399918	-15.09650517	-5.971407413	-15.17785072	1.0
12	-26.52600098	-15.31399918	15.31399918	-15.09309006	-6.196104527	-16.1500988	1.0
[RightHandThumb4]
9	-19.54599953	-11.28499985	11.28499985	0	0	0	1.0
10	-19.54599953	-11.28499985	11.28499985	0	0	0	1.0
11	-19.54599953	-11.28499985	11.28499985	0	0	0	1.0
12	-19.54599953	-11.28499985	11.28499985	0	0	0	1.0
[LeftUpLeg]
9	82.07800293	-67.51699829	-15.99599934	-30.59864998	20.6421833	3.986818314	1.0
10	82.07800293	-67.51699829	-15.99599934	-39.27376556	22.39206505	3.149583578	1.0
11	82.07800293	-67.51699829	-15.99599934	-49.00986099	24.5549221	2.266479969	1.0
12	82.07800293	-67.51699829	-15.99599934	-59.53655624	26.32296562	1.202730417	1.0
[LeftLeg]
9	0	-443.7049866	2.845999956	28.67681694	9.479278564	3.401385546	1.0
10	0	-443.7049866	2.845999956	37.07670593	9.788791656	3.799467325	1.0
11	0	-443.7049866	2.845999956	46.39790344	9.787779808	4.587779999	1.0
12	0	-443.7049866	2.845999956	55.88855743	9.174025536	5.923595905	1.0
[LeftFoot]
9	0	-444.2789917	-29.8219986	-5.426183701	1.930414438	-3.807761908	1.0
10	0	-444.2789917	-29.8219986	-8.717559814	2.37105155	-3.626932621	1.0
11	0	-444.2789917	-29.8219986	-12.13439083	2.081845999	-3.533809662	1.0
12	0	-444.2789917	-29.8219986	-15.2755518	1.454503298	-3.603887558	1.0
[LeftToeBase]
9	0	-87.28699493	107.1060028	-4.928522587	6.620194313e-07	2.848365455e-07	1.0
10	0	-87.28699493	107.1060028	-4.928521633	-9.825527059e-07	-2.62297533e-07	1.0
11	0	-87.28699493	107.1060028	-4.928524017	4.12893678e-06	7.169765581e-08	1.0
12	0	-87.28699493	107.1060028	-4.92853117	3.870797173e-06	3.678370035e-07	1.0
[RightUpLeg]
9	-82.07800293	-67.51699829	-15.99599934	-27.20633125	-2.955551147	1.919397593	1.0
10	-82.07800293	-67.51699829	-15.99599934	-36.35383987	-1.360709548	1.610066891	1.0
11	-82.07800293	-67.51699829	-15.99599934	-46.06008911	0.1385624111	1.619460821	1.0
12	-82.07800293	-67.51699829	-15.99599934	-55.93703079	1.096573114	1.956956029	1.0
[RightLeg]
9	0	-443.7049866	2.861999989	25.72924995	-4.010066986	-4.328070164	1.0
10	0	-443.7049866	2.861999989	33.78970718	-3.056124687	-3.568629265	1.0
11	0	-443.7049866	2.861999989	42.42422104	-2.578607798	-2.737970829	1.0
12	0	-443.7049866	2.861999989	51.18611908	-2.582624912	-1.771057844	1.0
[RightFoot]
9	0	-444.2770081	-29.83799934	-7.414348125	0.3192183375	4.391700268	1.0
10	0	-444.2770081	-29.83799934	-9.933257103	0.4089123309	4.18836832	1.0
11	0	-444.2770081	-29.83799934	-12.59928322	0.4524087012	3.91876173	1.0
12	0	-444.2770081	-29.83799934	-15.27210236	0.4375135005	3.538756371	1.0
[RightToeBase]
9	0	-87.28699493	107.1060028	-7.401543617	2.546352562e-06	3.531533821e-08	1.0
10	0	-87.28699493	107.1060028	-7.409832478	-3.543124421e-06	5.238464382e-07	1.0
11	0	-87.28699493	107.1060028	-7.411352634	-1.578042202e-06	-1.606997444e-06	1.0
12	0	-87.28699493	107.1060028	-7.403533459	1.247247928e-05	-1.130391297e-06	1.0
[EndOfFile]
